{
  "accessors": [
    {
      "bufferView": 2,
      "componentType": 5126,
      "count": 10233,
      "max": [
        0.12310025840997696,
        0.2844542860984802,
        0.2731172740459442
      ],
      "min": [
        -0.12779945135116577,
        -0.27923938632011414,
        -0.26697874069213867
      ],
      "type": "VEC3"
    },
    {
      "bufferView": 2,
      "byteOffset": 122796,
      "componentType": 5126,
      "count": 10233,
      "max": [
        0.9996324777603149,
        0.9999990463256836,
        0.999998927116394
      ],
      "min": [
        -0.9999815225601196,
        -0.9999675154685974,
        -0.9999924898147583
      ],
      "type": "VEC3"
    },
    {
      "bufferView": 3,
      "componentType": 5126,
      "count": 10233,
      "max": [
        0.9994770288467407,
        0.9991373419761658,
        0.9997994303703308,
        1.0
      ],
      "min": [
        -0.9997647404670715,
        -0.9997867941856384,
        -0.9999468922615051,
        -1.0
      ],
      "type": "VEC4"
    },
    {
      "bufferView": 1,
      "componentType": 5126,
      "count": 10233,
      "max": [
        0.9828085899353027,
        0.9988848567008972
      ],
      "min": [
        0.0011151276994496584,
        0.00111512397415936
      ],
      "type": "VEC2"
    },
    {
      "bufferView": 1,
      "byteOffset": 81864,
      "componentType": 5126,
      "count": 10233,
      "max": [
        0.9828085899353027,
        0.9988848567008972
      ],
      "min": [
        0.0011151276994496584,
        0.00111512397415936
      ],
      "type": "VEC2"
    },
    {
      "bufferView": 1,
      "byteOffset": 163728,
      "componentType": 5126,
      "count": 10233,
      "max": [
        0.9828085899353027,
        0.9988848567008972
      ],
      "min": [
        0.0011151276994496584,
        0.00111512397415936
      ],
      "type": "VEC2"
    },
    {
      "bufferView": 0,
      "componentType": 5125,
      "count": 48528,
      "type": "SCALAR"
    }
  ],
  "asset": {
    "extras": {
      "author": "MuseModels (https://sketchfab.com/MuseModels)",
      "license": "SKETCHFAB Standard (https://sketchfab.com/licenses)",
      "source": "https://sketchfab.com/3d-models/astronaut-stylized-942e4aba77e546ecbacfab3ad9235e94",
      "title": "Astronaut Stylized"
    },
    "generator": "Sketchfab-16.12.0",
    "version": "2.0"
  },
  "bufferViews": [
    {
      "buffer": 0,
      "byteLength": 194112,
      "name": "floatBufferViews",
      "target": 34963
    },
    {
      "buffer": 0,
      "byteLength": 245592,
      "byteOffset": 194112,
      "byteStride": 8,
      "name": "floatBufferViews",
      "target": 34962
    },
    {
      "buffer": 0,
      "byteLength": 245592,
      "byteOffset": 439704,
      "byteStride": 12,
      "name": "floatBufferViews",
      "target": 34962
    },
    {
      "buffer": 0,
      "byteLength": 163728,
      "byteOffset": 685296,
      "byteStride": 16,
      "name": "floatBufferViews",
      "target": 34962
    }
  ],
  "buffers": [
    {
      "byteLength": 849024,
      "uri": "scene.bin"
    }
  ],
  "images": [
    {
      "uri": "textures/base_material_baseColor.jpeg"
    },
    {
      "uri": "textures/base_material_metallicRoughness.png"
    },
    {
      "uri": "textures/base_material_normal.png"
    }
  ],
  "materials": [
    {
      "doubleSided": true,
      "name": "base_material",
      "normalTexture": {
        "index": 2
      },
      "pbrMetallicRoughness": {
        "baseColorTexture": {
          "index": 0
        },
        "metallicRoughnessTexture": {
          "index": 1
        }
      }
    }
  ],
  "meshes": [
    {
      "name": "mesh_base_material_0",
      "primitives": [
        {
          "attributes": {
            "NORMAL": 1,
            "POSITION": 0,
            "TANGENT": 2,
            "TEXCOORD_0": 3,
            "TEXCOORD_1": 4,
            "TEXCOORD_2": 5
          },
          "indices": 6,
          "material": 0,
          "mode": 4
        }
      ]
    }
  ],
  "nodes": [
    {
      "children": [
        1
      ],
      "matrix": [
        1.0,
        0.0,
        0.0,
        0.0,
        0.0,
        2.220446049250313e-16,
        -1.0,
        0.0,
        0.0,
        1.0,
        2.220446049250313e-16,
        0.0,
        0.0,
        0.0,
        0.0,
        1.0
      ],
      "name": "Sketchfab_model"
    },
    {
      "children": [
        2
      ],
      "matrix": [
        0.009999999776482582,
        0.0,
        0.0,
        0.0,
        0.0,
        0.0,
        0.009999999776482582,
        0.0,
        0.0,
        -0.009999999776482582,
        0.0,
        0.0,
        0.0,
        0.0,
        0.0,
        1.0
      ],
      "name": "040169fd7468_Astronaut_min.fbx"
    },
    {
      "children": [
        3
      ],
      "name": "RootNode"
    },
    {
      "children": [
        4
      ],
      "matrix": [
        177.32186889648438,
        0.0,
        0.0,
        0.0,
        0.0,
        177.3218688964842,
        7.750985063064264e-06,
        0.0,
        0.0,
        -7.750985063064264e-06,
        177.3218688964842,
        0.0,
        0.0,
        0.0,
        0.0,
        1.0
      ],
      "name": "mesh"
    },
    {
      "mesh": 0,
      "name": "mesh_base_material_0"
    }
  ],
  "samplers": [
    {
      "magFilter": 9729,
      "minFilter": 9987,
      "wrapS": 10497,
      "wrapT": 10497
    }
  ],
  "scene": 0,
  "scenes": [
    {
      "name": "Sketchfab_Scene",
      "nodes": [
        0
      ]
    }
  ],
  "textures": [
    {
      "sampler": 0,
      "source": 0
    },
    {
      "sampler": 0,
      "source": 1
    },
    {
      "sampler": 0,
      "source": 2
    }
  ]
}
